<?xml version="1.0" standalone="no"?>
<!DOCTYPE svg PUBLIC "-//W3C//DTD SVG 20010904//EN"
 "http://www.w3.org/TR/2001/REC-SVG-20010904/DTD/svg10.dtd">
<svg version="1.0" xmlns="http://www.w3.org/2000/svg"
 width="64.000000pt" height="64.000000pt" viewBox="0 0 64.000000 64.000000"
 preserveAspectRatio="xMidYMid meet">

<g transform="translate(0.000000,64.000000) scale(0.100000,-0.100000)"
fill="#000000" stroke="none">
<path d="M32 473 l3 -128 125 0 125 0 0 125 0 125 -128 3 -128 3 3 -128z m162
1 c14 -26 26 -50 26 -55 0 -5 -29 -9 -65 -9 -36 0 -65 3 -65 6 0 16 63 114 70
109 5 -3 20 -26 34 -51z"/>
<path d="M132 471 c-12 -21 -22 -41 -22 -45 0 -3 20 -6 45 -6 25 0 45 4 45 9
0 9 -39 81 -44 81 -1 0 -12 -17 -24 -39z"/>
<path d="M354 587 c-2 -7 -3 -65 -2 -128 l3 -114 125 0 125 0 3 128 3 127
-126 0 c-94 0 -127 -3 -131 -13z m186 -117 l0 -61 -57 3 -58 3 -3 44 c-5 66 0
71 63 71 l55 0 0 -60z"/>
<path d="M440 470 l0 -50 45 0 45 0 0 50 0 50 -45 0 -45 0 0 -50z"/>
<path d="M30 170 l0 -131 128 3 127 3 0 125 0 125 -127 3 -128 3 0 -131z m27
58 c-3 -8 -6 -5 -6 6 -1 11 2 17 5 13 3 -3 4 -12 1 -19z m143 -18 c50 -50 -6
-120 -75 -94 -37 15 -38 82 -1 106 20 14 56 8 76 -12z m-143 -88 c-2 -15 -4
-2 -4 28 0 30 2 43 4 28 2 -16 2 -40 0 -56z"/>
<path d="M128 209 c-21 -12 -24 -59 -6 -77 20 -20 56 -14 74 13 15 23 15 27 0
50 -17 26 -40 31 -68 14z"/>
<path d="M354 287 c-2 -7 -3 -65 -2 -128 l3 -114 128 -3 128 -3 -3 128 -3 128
-123 3 c-95 2 -124 0 -128 -11z m146 -67 c0 -6 11 -15 25 -20 26 -10 32 -24
15 -35 -5 -3 -10 -17 -10 -30 0 -21 -4 -23 -45 -23 -40 1 -45 4 -45 24 0 13
-4 26 -10 29 -17 11 -11 25 15 35 14 5 25 14 25 20 0 5 7 10 15 10 8 0 15 -5
15 -10z"/>
<path d="M473 206 c-5 -7 -17 -18 -28 -24 -11 -6 -14 -12 -7 -12 6 0 12 -10
12 -22 0 -19 6 -23 34 -24 24 0 33 3 29 13 -3 7 -1 19 5 26 8 9 4 18 -14 34
-18 16 -26 18 -31 9z"/>
</g>
</svg>
